<svg xmlns="http://www.w3.org/2000/svg" width="425.999" height="350.963" viewBox="0 0 425.999 350.963"><g transform="translate(232.916 -386.667) rotate(31)"><path d="M98.453,405.646c-43.721,26.568-11.274,68.821,16.628,94.731a286.221,286.221,0,0,0,55.783,40.078c26.2,14.54,58.424,23.421,92.41,25.688,32.755,2.18,65.641-2.132,97.677-6.178,17.242-2.175,34.469-4.336,51.868-5.9,17.591-1.579,35.014-3.427,50.469-9.616.232.367.465.731.7,1.1-30.826,2.968-69.106,9.129-97.335-2.826-.785-.33-.49-1.174.479-1.174,33.79-.072,67.337-2.788,100.815-5.575.919-.072,1.111.709.665,1.073-16.824,13.9-35.163,26.925-50.527,41.6-.461.436-1.54.034-1.09-.424,14.812-15.08,33.322-28.087,50.284-42.06.222.357.443.716.668,1.068-33.485,2.768-67.018,5.507-100.815,5.582q.24-.586.48-1.174c27.685,11.721,65.666,5.638,95.893,2.756.948-.089,1.664.738.7,1.095-15.3,5.679-31.709,7.8-48.922,9.329-20.395,1.813-40.568,4.374-60.788,6.889-34.4,4.278-69.313,7.945-104.218,4.1-57.763-6.363-101.77-33.845-135.1-64.151-28.28-25.719-62.357-69.981-17.042-96.231.222-.128.545.082.323.217Z" transform="translate(0 0)" fill="currentColor"></path></g></svg>